<svg width="415" height="472" viewBox="0 0 415 472" fill="none" xmlns="http://www.w3.org/2000/svg">
<path fill-rule="evenodd" clip-rule="evenodd" d="M378.768 167.741L375.772 167.899L374.345 140.805C373.934 140.754 373.531 140.673 373.139 140.565L361.251 163.657L358.584 162.284L370.434 139.266C370.068 139.002 369.724 138.71 369.405 138.392L347.4 153.371L345.712 150.891L367.684 135.935C367.367 135.248 367.138 134.511 367.013 133.737L339.95 134.814L339.831 131.817L367.06 130.732C367.154 130.252 367.289 129.784 367.461 129.335L342.911 117.104L344.249 114.419L369.017 126.759C369.318 126.417 369.646 126.099 369.998 125.808L353.995 102.651L356.463 100.945L372.626 124.333C372.899 124.239 373.179 124.158 373.465 124.092L371.985 95.9986L374.981 95.8409L376.461 123.934C377.036 124.005 377.595 124.135 378.13 124.316L391.54 98.2692L394.208 99.6424L380.757 125.768C381.036 125.994 381.301 126.238 381.549 126.497L405.232 110.376L406.92 112.856L383.208 128.997C383.358 129.344 383.486 129.704 383.589 130.074L411.774 128.952L411.893 131.95L383.875 133.065C383.847 133.412 383.798 133.754 383.729 134.089L408.694 146.527L407.356 149.212L382.607 136.881C382.404 137.205 382.18 137.514 381.936 137.807L397.396 160.178L394.928 161.883L379.63 139.746C378.926 140.15 378.157 140.457 377.341 140.647L378.768 167.741Z" fill="#83A17D"/>
<path d="M1.08698 1.03818C6.27459 34.4648 35.2785 93.0123 109.793 59.789C202.937 18.2599 207.053 23.5152 252.41 157.853C297.767 292.19 366.734 311.095 400.317 272.088C428.869 238.923 413.877 144.159 325.442 173.59C237.007 203.021 246.465 412.497 414.188 470.54" stroke="url(#paint0_linear_0_1)"/>
<defs>
<linearGradient id="paint0_linear_0_1" x1="538.003" y1="551.093" x2="63.6537" y2="47.2476" gradientUnits="userSpaceOnUse">
<stop offset="0.203415" stop-color="#143C3C"/>
<stop offset="0.553176" stop-color="white"/>
<stop offset="1" stop-opacity="0"/>
</linearGradient>
</defs>
</svg>
